<?xml version="1.0" encoding="utf-8"?>
<!-- Generator: Adobe Illustrator 27.1.1, SVG Export Plug-In . SVG Version: 6.00 Build 0)  -->
<svg version="1.1" id="_レイヤー_1" xmlns="http://www.w3.org/2000/svg" xmlns:xlink="http://www.w3.org/1999/xlink" x="0px"
	 y="0px" viewBox="0 0 1920 777.2" style="enable-background:new 0 0 1920 777.2;" xml:space="preserve">
<style type="text/css">
	.st0{fill:#FFFFFF;}
	.st1{fill:#FF6633;}
	.st2{fill:#F15A24;}
</style>
<rect y="635.9" class="st0" width="1405.5" height="49.6"/>
<rect y="727.6" class="st0" width="969" height="49.6"/>
<rect x="1026.6" y="727.6" class="st1" width="893.4" height="49.6"/>
<rect x="1519.4" y="635.9" class="st2" width="400.6" height="49.6"/>
<path class="st0" d="M287.5,316.3c-17.8-18.7-42.2-28-73.1-28c-21,0-39,3.5-54.3,10.2c-15.3,6.8-30.7,18.3-46.2,34.1V111.8L0,177
	v412.5h113.9V448c0-26.8,4.3-45.4,12.9-55.7c8.6-10.3,19.8-15.6,33.6-15.6c12.5,0,22.2,3.8,29.1,11.5c6.9,7.7,10.3,20.8,10.3,39.3
	v162h114.5V402.2C314.3,363.6,305.4,334.9,287.5,316.3L287.5,316.3z"/>
<path class="st0" d="M673.1,339.6c-30.3-34.3-75.4-51.3-134.8-51.3c-52.1,0-93.4,14.5-124,43.7c-30.5,29.2-45.9,66.1-45.9,111.1
	c0,48.3,18,87.3,54.3,117.1c29.4,24,68,36,115.9,36c53.6,0,95.5-14.4,125.8-43.4c30.3-29,45.5-66.1,45.5-111.4
	C709.8,401.1,697.6,367.1,673.1,339.6L673.1,339.6z M579.5,501.3c-10.5,12.4-24.1,18.6-40.4,18.6s-29.8-6.3-40.5-18.9
	s-16.1-32-16.1-58.2s5.5-45.2,16.3-57.9s24.5-19,41.2-19c15.6,0,28.8,6.2,39.5,18.7c10.6,12.5,15.9,31.5,15.9,57
	C595.3,469.1,590,488.9,579.5,501.3L579.5,501.3z"/>
<path class="st0" d="M960.5,509.1c-15.1,4.8-26.9,7.2-35.2,7.2c-9.3,0-15.9-3.2-19.5-9.4c-2.4-4.1-3.7-12.4-3.7-24.9V377.6h62.7
	v-82.7h-62.7V184.9l-114.2,65.4v44.5h-42v82.7h42v103.6c0,32.9,3.2,56.7,9.6,71.4c6.5,14.7,16.4,25.7,29.9,32.9
	c13.4,7.2,34.3,10.8,62.7,10.8c24.4,0,50.7-3.1,78.9-9.1L960.5,509.1L960.5,509.1z"/>
<path class="st0" d="M1153.4,489.4V104.1l-126.8,72.6v412.8h324.7V489.4L1153.4,489.4L1153.4,489.4z"/>
<path class="st0" d="M1405.5,322.5v267h113.9V257.3L1405.5,322.5L1405.5,322.5z"/>
<path class="st0" d="M1884.4,326.9c-23.7-25.8-53.6-38.7-89.8-38.7c-17.5,0-33.6,3-48,8.9c-14.4,6-27.3,14.8-38.7,26.6V106.9
	l-115,65.9v416.7h106.7V546c14.7,18.3,28.3,30.7,40.8,37.5c16.6,8.5,34.9,12.8,54.9,12.8c23.3,0,44.5-6.1,63.7-18.2
	c19.1-12.1,34.1-30.5,44.9-55c10.8-24.5,16.3-52.8,16.3-85.1C1920,389.8,1908.2,352.7,1884.4,326.9L1884.4,326.9z M1792.2,496.7
	c-9.2,11.2-20.7,16.8-34.3,16.8c-14.8,0-26.9-5.7-36.6-17c-9.6-11.4-14.4-29.7-14.4-55.1c0-23.1,4.9-40.4,14.7-51.8
	c9.9-11.4,22.5-17,38-17c12.9,0,23.9,5.5,32.9,16.4s13.5,28,13.5,51.3C1806,466.7,1801.4,485.6,1792.2,496.7L1792.2,496.7z"/>
<polygon class="st2" points="0.2,0 113.9,65.1 0.2,130.1 "/>
<polygon class="st0" points="1405.7,145.7 1519.3,210.7 1405.7,275.8 "/>
</svg>
